# xmcd
#
# Track frame offsets: 
#        150
#        21880
#        37620
#        56675
#        76345
#        95079
#        116992
#        131620
#        152852
#        168067
#        188000
#        206385
#
# Disc length: 2974 seconds
#
# Revision: 2
# Processed by: cddbd v1.5.2PL0 Copyright (c) Steve Scherf et al.
# Submitted via: ExactAudioCopyFreeDBPlugin 1.0
#
DISCID=940b9c0c
DTITLE=Os Nativos - Desculpa Tchê
DYEAR=2000
DGENRE=Gaúcha
TTITLE0=Castelhana
TTITLE1=Desculpa Tchê
TTITLE2=Fim De Semana
TTITLE3=Morena Amor
TTITLE4=A Primeira Vez
TTITLE5=Coração Carente
TTITLE6=Divina Menina
TTITLE7=Reencontro
TTITLE8=Lá Vem O Trem
TTITLE9=Amor De Verão
TTITLE10=Amiga Especial
TTITLE11=Apaixonado
EXTD=
EXTT0=
EXTT1=
EXTT2=
EXTT3=
EXTT4=
EXTT5=
EXTT6=
EXTT7=
EXTT8=
EXTT9=
EXTT10=
EXTT11=
PLAYORDER=
